<svg id="microscope" xmlns="http://www.w3.org/2000/svg" width="25.898" height="32" viewBox="0 0 25.898 32">
  <path id="Union_13" data-name="Union 13" d="M1.325,32a1.523,1.523,0,0,1,0-3.02H14.941A10.9,10.9,0,0,1,4.4,21.285H1A.963.963,0,1,1,1,19.36H8.965a.963.963,0,1,1,0,1.924H6.493a8.948,8.948,0,0,0,8.447,5.772,9.1,9.1,0,0,0,6.338-2.537A8.484,8.484,0,0,0,23.9,18.4a8.647,8.647,0,0,0-5.262-7.885l-5.81,5.611a1.018,1.018,0,0,1-1.409,0l-.7-.679L8.407,17.677a1.018,1.018,0,0,1-1.408,0L4.182,14.956a.937.937,0,0,1,0-1.36l2.312-2.232-.7-.681a.936.936,0,0,1,0-1.359L14.642.775a1.021,1.021,0,0,1,1.409,0l.7.681L17.97.283a1.019,1.019,0,0,1,1.408,0L22.2,3a.94.94,0,0,1,0,1.36L20.979,5.538l.7.679a.937.937,0,0,1,0,1.36l-1.555,1.5A10.533,10.533,0,0,1,25.9,18.4,10.774,10.774,0,0,1,14.941,28.98h7.594a1.523,1.523,0,0,1,0,3.02ZM6.3,14.276,7.7,15.636l2.221-2.143L8.589,12.062ZM18.7,5.064a.97.97,0,0,1,.163-.208l1.216-1.175-1.409-1.36L17.458,3.5a.987.987,0,0,1-.123.1Z" fill="#0065ff"/>
</svg>
