<svg xmlns="http://www.w3.org/2000/svg" width="16" height="15.375" viewBox="0 0 16 15.375">
  <path id="Union_53" data-name="Union 53" d="M-1327.479-3883.8a1.176,1.176,0,0,1,1.176-1.176,1.176,1.176,0,0,1,1.176,1.176,1.175,1.175,0,0,1-1.176,1.175A1.175,1.175,0,0,1-1327.479-3883.8Zm-7.142,0a1.175,1.175,0,0,1,1.175-1.176,1.176,1.176,0,0,1,1.176,1.176,1.175,1.175,0,0,1-1.176,1.175A1.175,1.175,0,0,1-1334.622-3883.8Zm-.7-2.483a1.389,1.389,0,0,1,.042-1.771l.068-.068.857-.7-2.4-7.577-1.876-.574a.526.526,0,0,1-.347-.656.525.525,0,0,1,.656-.347l2.141.658a.524.524,0,0,1,.345.34l2.388,7.561h7.838l1.4-6.271h-9.855l-.339-1.045h10.878a.524.524,0,0,1,.4.194.522.522,0,0,1,.115.444l-1.656,7.316a.522.522,0,0,1-.522.407h-8.068l-1.259,1.045a.351.351,0,0,0,0,.344.349.349,0,0,0,.293.178h8.8a.523.523,0,0,1,.522.522.523.523,0,0,1-.522.523h-8.72l-.071,0A1.437,1.437,0,0,1-1335.322-3886.283Z" transform="translate(1339 3898)" fill="#fff"/>
</svg>
